G04 PROTEUS GERBER X2 FILE*
%TF.GenerationSoftware,Labcenter,Proteus,8.6-SP2-Build23525*%
%TF.CreationDate,2019-09-23T20:59:54+00:00*%
%TF.FileFunction,Copper,L2,Bot*%
%TF.FilePolarity,Positive*%
%TF.Part,Single*%
%FSLAX45Y45*%
%MOMM*%
G01*
%TA.AperFunction,Conductor*%
%ADD10C,0.254000*%
%TA.AperFunction,ViaPad*%
%ADD11C,0.762000*%
%TA.AperFunction,ComponentPad*%
%ADD12R,1.270000X1.270000*%
%ADD13C,1.270000*%
%TA.AperFunction,Profile*%
%ADD14C,0.203200*%
%TD.AperFunction*%
D10*
X-1206500Y+8191500D02*
X-1230000Y+8215000D01*
X-1230000Y+9000000D01*
X-2730500Y+6794500D02*
X-2743200Y+6807200D01*
X-2743200Y+7620000D01*
X-2373000Y+7990200D01*
X-2373000Y+8873000D01*
X-2246000Y+9000000D01*
X-11239500Y+6794500D02*
X-11238000Y+6793000D01*
X-11238000Y+6500000D01*
X-2921000Y+6921500D02*
X-2889250Y+6953250D01*
X-2889250Y+9429750D01*
X-2921000Y+9461500D01*
X-1524000Y+6604000D02*
X-1117600Y+7010400D01*
X-1117600Y+9649600D01*
X-1230000Y+9762000D01*
X-10795000Y+6731000D02*
X-10795000Y+6743700D01*
X-10769600Y+6769100D01*
X-10769600Y+6807200D01*
X-11074400Y+7112000D01*
X-11088000Y+7112000D01*
X-11238000Y+7262000D01*
X-976000Y+9000000D02*
X-976000Y+8636000D01*
X-722000Y+8382000D01*
X-722000Y+8012000D01*
X-11238000Y+5250000D02*
X-11238000Y+4978400D01*
X-11136400Y+4876800D01*
X-2438400Y+4876800D01*
X-2246000Y+5069200D01*
X-2246000Y+7250000D01*
X-2603500Y+5778500D02*
X-2603500Y+7518400D01*
X-2246000Y+7875900D01*
X-2246000Y+8012000D01*
X-11049000Y+5778500D02*
X-11074400Y+5778500D01*
X-11074400Y+5791200D01*
X-10984000Y+5791200D01*
X-10984000Y+6012000D01*
X-10222000Y+9762000D02*
X-10363200Y+9903200D01*
X-10363200Y+10363200D01*
X-11624800Y+10363200D01*
X-11738000Y+10250000D01*
X-10984000Y+7750000D02*
X-11379200Y+8145200D01*
X-11379200Y+10100800D01*
X-11230000Y+10250000D01*
X-10476000Y+7750000D02*
X-10871200Y+8145200D01*
X-10871200Y+10145200D01*
X-10976000Y+10250000D01*
X-10222000Y+8512000D02*
X-10603000Y+8893000D01*
X-10603000Y+10131000D01*
X-10722000Y+10250000D01*
X-11492000Y+7262000D02*
X-11379200Y+7149200D01*
X-11379200Y+6299200D01*
X-10871200Y+6197600D02*
X-11277600Y+6197600D01*
X-11379200Y+6299200D01*
X-10984000Y+5250000D02*
X-10871200Y+5362800D01*
X-10871200Y+6197600D01*
X-10661600Y+6197600D01*
X-10476000Y+6012000D01*
X-11492000Y+6012000D02*
X-11712800Y+5791200D01*
X-11988800Y+5791200D01*
X-10871200Y+6197600D02*
X-10871200Y+6387200D01*
X-10984000Y+6500000D01*
X-11988800Y+5791200D02*
X-12293600Y+6096000D01*
X-12293600Y+6500000D01*
X-12000000Y+6500000D01*
X-11492000Y+7262000D02*
X-11337200Y+7416800D01*
X-10630800Y+7416800D01*
X-10476000Y+7262000D01*
X-11492000Y+6012000D02*
X-11492000Y+6186400D01*
X-11379200Y+6299200D01*
X-11988800Y+5791200D02*
X-11988800Y+5689600D01*
X-12000000Y+5678400D01*
X-12000000Y+5250000D01*
X-1738000Y+7250000D02*
X-1357000Y+7631000D01*
X-1357000Y+9861000D01*
X-968000Y+10250000D01*
X-2500000Y+7250000D02*
X-2133600Y+7616400D01*
X-2133600Y+10261600D01*
X-2032000Y+10363200D01*
X-1335200Y+10363200D01*
X-1222000Y+10250000D01*
X-1738000Y+8012000D02*
X-1625600Y+8124400D01*
X-1625600Y+10100400D01*
X-1476000Y+10250000D01*
X-1738000Y+9000000D02*
X-1865000Y+9127000D01*
X-1865000Y+10131000D01*
X-1984000Y+10250000D01*
X-2500000Y+9000000D02*
X-2500000Y+9347200D01*
X-2373000Y+9474200D01*
X-2373000Y+10115000D01*
X-2238000Y+10250000D01*
X-2540000Y+9969500D02*
X-2492000Y+10017500D01*
X-2492000Y+10250000D01*
X-1714500Y+9969500D02*
X-1738000Y+9946000D01*
X-1738000Y+9762000D01*
X-3048000Y+9956800D02*
X-2743200Y+9956800D01*
X-2641600Y+10058400D01*
X-2641600Y+10363200D01*
X-2540000Y+10464800D01*
X-1261200Y+10464800D01*
X-714000Y+11012000D01*
X-6964000Y+11012000D02*
X-6477000Y+10525000D01*
X-6477000Y+8509000D01*
X-3714000Y+11012000D02*
X-3251200Y+11012000D01*
X-3149600Y+10910400D01*
X-3149600Y+10058400D01*
X-3048000Y+9956800D01*
X-10223500Y+10858500D02*
X-10214000Y+10868000D01*
X-10214000Y+11012000D01*
X-6731000Y+8509000D02*
X-6731000Y+7245000D01*
X-6964000Y+7012000D01*
X-3048000Y+9956800D02*
X-3048000Y+8318500D01*
X-3937000Y+8318500D02*
X-3937000Y+8229600D01*
X-4038600Y+8128000D01*
X-4230000Y+8128000D01*
X-4230000Y+8512000D01*
X-7734000Y+8512000D02*
X-7620000Y+8398000D01*
X-7620000Y+7721600D01*
X-7218000Y+7319600D01*
X-7218000Y+7012000D01*
X-3968000Y+11012000D02*
X-3968000Y+10699000D01*
X-3937000Y+10668000D01*
X-3746500Y+10668000D02*
X-3937000Y+10668000D01*
X-3968000Y+11012000D02*
X-3860600Y+11119400D01*
X-2641600Y+11119400D01*
X-2641600Y+10871200D01*
X-2540000Y+10769600D01*
X-1210400Y+10769600D01*
X-968000Y+11012000D01*
X-3746500Y+10668000D02*
X-3352800Y+10668000D01*
X-3238500Y+10553700D01*
X-3238500Y+8636000D01*
X-7988000Y+8512000D02*
X-7988000Y+8026400D01*
X-8128000Y+7886400D01*
X-8128000Y+7518400D01*
X-8026400Y+7416800D01*
X-7620000Y+7416800D01*
X-7472000Y+7268800D01*
X-7472000Y+7012000D01*
X-7472000Y+11012000D02*
X-7349000Y+10889000D01*
X-7349000Y+8940800D01*
X-7526800Y+8763000D01*
X-7620000Y+8763000D01*
X-4222000Y+11012000D02*
X-4222000Y+10668000D01*
X-4120400Y+10566400D01*
X-3556000Y+10566400D01*
X-3365500Y+10375900D01*
X-3365500Y+8763000D01*
X-8242000Y+8512000D02*
X-8369000Y+8385000D01*
X-8369000Y+7416800D01*
X-8267400Y+7315200D01*
X-7924800Y+7315200D01*
X-7726000Y+7116400D01*
X-7726000Y+7012000D01*
X-9969500Y+10668000D02*
X-10632000Y+10668000D01*
X-10976000Y+11012000D01*
X-4476000Y+11012000D02*
X-4476000Y+11176000D01*
X-5486400Y+11176000D01*
X-5619000Y+11043400D01*
X-5619000Y+10972800D01*
X-5720600Y+10871200D01*
X-5892800Y+10871200D01*
X-5892800Y+11119400D01*
X-6152600Y+11119400D01*
X-6299200Y+10972800D01*
X-7726000Y+11012000D02*
X-7618600Y+11119400D01*
X-6445800Y+11119400D01*
X-6299200Y+10972800D01*
X-6350000Y+8763000D02*
X-6400800Y+8813800D01*
X-6400800Y+10871200D01*
X-6299200Y+10972800D01*
X-7726000Y+11012000D02*
X-7726000Y+10689000D01*
X-7747000Y+10668000D01*
X-9969500Y+10541000D02*
X-9969500Y+10668000D01*
X-9969500Y+10541000D02*
X-9969500Y+8699500D01*
X-8242000Y+8512000D02*
X-8242000Y+8686500D01*
X-8255000Y+8699500D01*
X-4953000Y+8763000D02*
X-4992000Y+8724000D01*
X-4992000Y+8512000D01*
X-4730000Y+11012000D02*
X-4730000Y+10769600D01*
X-4628400Y+10668000D01*
X-4381500Y+10668000D01*
X-7480000Y+9762000D02*
X-7620000Y+9902000D01*
X-7620000Y+10308000D01*
X-7980000Y+10668000D01*
X-7980000Y+11012000D01*
X-2413000Y+10858500D02*
X-1883500Y+10858500D01*
X-1730000Y+11012000D01*
X-4368800Y+10566400D02*
X-4368800Y+10655300D01*
X-4381500Y+10668000D01*
X-4368800Y+10566400D02*
X-4368800Y+9900800D01*
X-4230000Y+9762000D01*
X-6286500Y+9842500D02*
X-6286500Y+9550400D01*
X-6267450Y+9531350D01*
X-6267450Y+7620000D01*
X-6299200Y+7588250D01*
X-6299200Y+7213600D01*
X-6197600Y+7213600D01*
X-6197600Y+6197600D01*
X-6299200Y+6096000D01*
X-7518400Y+6096000D01*
X-7620000Y+6197600D01*
X-7620000Y+6299200D01*
X-7980000Y+6659200D01*
X-7980000Y+7012000D01*
X-8128000Y+5892800D02*
X-8026400Y+5791200D01*
X-6197600Y+5791200D01*
X-6096000Y+5892800D01*
X-6096000Y+9753600D01*
X-5892800Y+9956800D01*
X-5892800Y+9994900D01*
X-5905500Y+10007600D01*
X-5905500Y+10033000D01*
X-9956800Y+10769600D02*
X-9607000Y+11119400D01*
X-8341400Y+11119400D01*
X-8234000Y+11012000D01*
X-8128000Y+5892800D02*
X-8229600Y+5791200D01*
X-9753600Y+5791200D01*
X-9855200Y+5892800D01*
X-9855200Y+10668000D01*
X-9956800Y+10769600D01*
X-9956800Y+10972800D01*
X-10103400Y+11119400D01*
X-11376600Y+11119400D01*
X-11484000Y+11012000D01*
X-4984000Y+11012000D02*
X-4876800Y+10904800D01*
X-4876800Y+10128800D01*
X-5111200Y+10128800D01*
X-5207000Y+10033000D01*
X-8128000Y+5892800D02*
X-8128000Y+6906000D01*
X-8234000Y+7012000D01*
X-4984000Y+11012000D02*
X-4876600Y+11119400D01*
X-4603000Y+11119400D01*
X-4603000Y+10972800D01*
X-4501400Y+10871200D01*
X-4368800Y+10871200D01*
X-4368800Y+11074400D01*
X-4267200Y+11176000D01*
X-2148000Y+11176000D01*
X-1984000Y+11012000D01*
X-9652000Y+10464800D02*
X-9652000Y+6197600D01*
X-9550400Y+6096000D01*
X-8737600Y+6096000D01*
X-8636000Y+6197600D01*
X-8636000Y+6864000D01*
X-8488000Y+7012000D01*
X-8128000Y+10464800D02*
X-8488000Y+10824800D01*
X-8488000Y+11012000D01*
X-4572000Y+10477500D02*
X-4577600Y+10471900D01*
X-4577600Y+10160000D01*
X-4673600Y+10064000D01*
X-4673600Y+9956800D01*
X-4738000Y+9892400D01*
X-4738000Y+9762000D01*
X-5270500Y+10477500D02*
X-5238000Y+10510000D01*
X-5238000Y+11012000D01*
X-4572000Y+10477500D02*
X-4533901Y+10477500D01*
X-4533900Y+10477499D01*
X-4483100Y+10477499D01*
X-4483099Y+10477500D01*
X-4445000Y+10477500D01*
X-4992000Y+9762000D02*
X-5186800Y+9956800D01*
X-5283200Y+9956800D01*
X-5384800Y+10058400D01*
X-5384800Y+10363200D01*
X-5397500Y+10375900D01*
X-5397500Y+10795000D01*
X-8636000Y+10096500D02*
X-8636000Y+9550400D01*
X-8940800Y+9245600D01*
X-8940800Y+7315200D01*
X-8742000Y+7116400D01*
X-8742000Y+7012000D01*
X-8636000Y+10096500D02*
X-8636000Y+10906000D01*
X-8742000Y+11012000D01*
X-5397500Y+10795000D02*
X-5492000Y+10889500D01*
X-5492000Y+11012000D01*
X-3976000Y+7750000D02*
X-3860800Y+7865200D01*
X-3860800Y+8884800D01*
X-3976000Y+9000000D01*
X-7226000Y+7750000D02*
X-7112000Y+7864000D01*
X-7112000Y+8636000D01*
X-7226000Y+8750000D01*
X-7226000Y+9000000D01*
X-5746000Y+11012000D02*
X-5746000Y+11176000D01*
X-12082000Y+11176000D01*
X-12246000Y+11012000D01*
X-7112000Y+7010400D02*
X-7112000Y+6908800D01*
X-8496000Y+7750000D02*
X-8496000Y+7315200D01*
X-8394400Y+7213600D01*
X-8026400Y+7213600D01*
X-7853000Y+7040200D01*
X-7853000Y+6908800D01*
X-7112000Y+6908800D01*
X-7112000Y+6398000D01*
X-6964000Y+6250000D01*
X-11684000Y+8039100D02*
X-11582400Y+7937500D01*
X-11480800Y+7937500D01*
X-11379200Y+7835900D01*
X-11379200Y+7721600D01*
X-11277600Y+7620000D01*
X-10464800Y+7620000D01*
X-8496000Y+7750000D02*
X-8496000Y+8026400D01*
X-8636000Y+8166400D01*
X-8636000Y+8737600D01*
X-8737600Y+8839200D01*
X-5500000Y+9000000D02*
X-5384800Y+8884800D01*
X-5384800Y+8229600D01*
X-5246000Y+8090800D01*
X-5246000Y+7750000D01*
X-722000Y+9000000D02*
X-609600Y+8887600D01*
X-609600Y+7362400D01*
X-722000Y+7250000D01*
X-722000Y+9000000D02*
X-609600Y+9112400D01*
X-609600Y+10145600D01*
X-714000Y+10250000D01*
X-10476000Y+6500000D02*
X-10476000Y+6604000D01*
X-10363200Y+6716800D01*
X-10363200Y+7518400D01*
X-10464800Y+7620000D01*
X-6972000Y+7750000D02*
X-6972000Y+7518400D01*
X-7112000Y+7378400D01*
X-7112000Y+7010400D01*
X-10222000Y+7750000D02*
X-10352000Y+7620000D01*
X-10464800Y+7620000D01*
X-11684000Y+8039100D02*
X-11746000Y+7977100D01*
X-11746000Y+7750000D01*
X-10222000Y+9000000D02*
X-10058400Y+9163600D01*
X-10058400Y+10094400D01*
X-10214000Y+10250000D01*
X-3722000Y+9000000D02*
X-3556000Y+9166000D01*
X-3556000Y+10092000D01*
X-3714000Y+10250000D01*
X-6972000Y+9000000D02*
X-6972000Y+9347200D01*
X-6807200Y+9512000D01*
X-6807200Y+10093200D01*
X-6964000Y+10250000D01*
X-10476000Y+6500000D02*
X-10363200Y+6387200D01*
X-10363200Y+5362800D01*
X-10476000Y+5250000D01*
X-6972000Y+9000000D02*
X-6807200Y+8835200D01*
X-6807200Y+7914800D01*
X-6972000Y+7750000D01*
X-3722000Y+9000000D02*
X-3722000Y+8737600D01*
X-3556000Y+8571600D01*
X-3556000Y+7916000D01*
X-3722000Y+7750000D01*
X-11684000Y+8039100D02*
X-11887200Y+8242300D01*
X-11887200Y+8858800D01*
X-11746000Y+9000000D01*
X-8750000Y+9000000D02*
X-8750000Y+8851600D01*
X-8737600Y+8839200D01*
X-8656800Y+8839200D01*
X-8496000Y+9000000D01*
X-8750000Y+7750000D02*
X-8750000Y+7749999D01*
X-8636000Y+7749999D01*
X-8635999Y+7750000D01*
X-8496000Y+7750000D01*
X-5500000Y+9000000D02*
X-5500000Y+9144000D01*
X-5246000Y+9144000D01*
X-5246000Y+9000000D01*
X-5500000Y+7750000D02*
X-5500000Y+7749999D01*
X-5384800Y+7749999D01*
X-5384799Y+7750000D01*
X-5246000Y+7750000D01*
X-7226000Y+9762000D02*
X-7226000Y+9245600D01*
X-7112000Y+9131600D01*
X-7112000Y+8839200D01*
X-6972000Y+8699200D01*
X-6972000Y+8512000D01*
X-3976000Y+9762000D02*
X-3976000Y+9347200D01*
X-4103000Y+9220200D01*
X-4103000Y+8839200D01*
X-3976000Y+8712200D01*
X-3976000Y+8512000D01*
X-3976000Y+9762000D02*
X-3722000Y+9762000D01*
X-6286500Y+7112000D02*
X-6553200Y+7378700D01*
X-6553200Y+10363200D01*
X-6654800Y+10464800D01*
X-7003200Y+10464800D01*
X-7218000Y+10250000D01*
X-6223000Y+7302500D02*
X-6210300Y+7315200D01*
X-6210300Y+10083800D01*
X-6286500Y+10160000D01*
X-7988000Y+7750000D02*
X-7861000Y+7877000D01*
X-7861000Y+9855200D01*
X-7726000Y+9990200D01*
X-7726000Y+10250000D01*
X-8242000Y+7750000D02*
X-8242000Y+8026400D01*
X-8128000Y+8140400D01*
X-8128000Y+10102000D01*
X-7980000Y+10250000D01*
X-7874000Y+10033000D02*
X-7874000Y+10363200D01*
X-8120800Y+10363200D01*
X-8234000Y+10250000D01*
X-7112000Y+9461500D02*
X-7112000Y+10033000D01*
X-7480000Y+9000000D02*
X-7480000Y+9448500D01*
X-7493000Y+9461500D01*
X-8382000Y+9461500D02*
X-8382000Y+10144000D01*
X-8488000Y+10250000D01*
X-7734000Y+9000000D02*
X-7734000Y+9448500D01*
X-7747000Y+9461500D01*
X-4165600Y+7518400D02*
X-4165600Y+5181600D01*
X-4267200Y+5080000D01*
X-10972800Y+5080000D01*
X-11111000Y+5218200D01*
X-11111000Y+5384800D01*
X-11212600Y+5486400D01*
X-11509600Y+5486400D01*
X-11746000Y+5250000D01*
X-4165600Y+7518400D02*
X-4230000Y+7582800D01*
X-4230000Y+7750000D01*
X-4165600Y+7620000D02*
X-4165600Y+7518400D01*
X-4165600Y+7620000D02*
X-3556000Y+7620000D01*
X-3454400Y+7721600D01*
X-3454400Y+10261600D01*
X-3556000Y+10363200D01*
X-3854800Y+10363200D01*
X-3968000Y+10250000D01*
X-4484000Y+7750000D02*
X-4484000Y+5283200D01*
X-4627600Y+5139600D01*
X-10619600Y+5139600D01*
X-10730000Y+5250000D01*
X-4484000Y+7750000D02*
X-4368800Y+7865200D01*
X-4368800Y+9347200D01*
X-4103000Y+9613000D01*
X-4103000Y+10131000D01*
X-4222000Y+10250000D01*
X-4738000Y+7750000D02*
X-4604200Y+7883800D01*
X-4604200Y+9855200D01*
X-4476000Y+9983400D01*
X-4476000Y+10250000D01*
X-4738000Y+7750000D02*
X-4738000Y+5930000D01*
X-4762500Y+5905500D01*
X-4992000Y+7750000D02*
X-4876800Y+7865200D01*
X-4876800Y+9956800D01*
X-4730000Y+10103600D01*
X-4730000Y+10250000D01*
X-4992000Y+7750000D02*
X-4992000Y+5612500D01*
X-5016500Y+5588000D01*
X-4230000Y+9000000D02*
X-4230000Y+8737600D01*
X-4127500Y+8635100D01*
X-4127500Y+8382000D01*
X-3873500Y+9144000D02*
X-3613600Y+9403900D01*
X-3613600Y+9811200D01*
X-3759200Y+9956800D01*
X-3759200Y+9994900D01*
X-3746500Y+10007600D01*
X-3746500Y+10033000D01*
X-6731000Y+9144000D02*
X-6604000Y+9017000D01*
X-6604000Y+6604000D01*
X-6731000Y+10033000D02*
X-6731000Y+10058400D01*
X-6705600Y+10058400D01*
X-6705600Y+9169400D01*
X-6731000Y+9144000D01*
X-5334000Y+9461500D02*
X-5181600Y+9461500D01*
X-5181600Y+9550400D01*
X-5384800Y+9753600D01*
X-5384800Y+9855200D01*
X-5492000Y+9962400D01*
X-5492000Y+10250000D01*
X-4762500Y+9461500D02*
X-4738000Y+9437000D01*
X-4738000Y+9000000D01*
X-5778500Y+6985000D02*
X-5994400Y+7200900D01*
X-5994400Y+9245600D01*
X-5892800Y+9347200D01*
X-5892800Y+9423400D01*
X-5905500Y+9436100D01*
X-5905500Y+9461500D01*
X-10731500Y+6985000D02*
X-10730000Y+6986500D01*
X-10730000Y+7262000D01*
X-5842000Y+8953500D02*
X-5746000Y+9049500D01*
X-5746000Y+10250000D01*
X-5842000Y+8953500D02*
X-5842000Y+8001000D01*
X-8496000Y+8512000D02*
X-8369000Y+8639000D01*
X-8369000Y+9245600D01*
X-8496000Y+9372600D01*
X-8496000Y+9762000D01*
X-5246000Y+8512000D02*
X-5119000Y+8639000D01*
X-5119000Y+9635000D01*
X-5246000Y+9762000D01*
X-12000000Y+9762000D02*
X-12395200Y+9762000D01*
X-12500000Y+9866800D01*
X-12500000Y+10250000D01*
X-5500000Y+9762000D02*
X-5641600Y+9903600D01*
X-5641600Y+10464800D01*
X-5785200Y+10464800D01*
X-6000000Y+10250000D01*
X-9250000Y+10250000D02*
X-8940800Y+9940800D01*
X-8940800Y+9550400D01*
X-9250000Y+7012000D02*
X-9144000Y+7118000D01*
X-9144000Y+8318500D01*
X-8940800Y+9550400D02*
X-9144000Y+9347200D01*
X-9144000Y+8318500D01*
X-8750000Y+9762000D02*
X-8750000Y+9652000D01*
X-8851600Y+9550400D01*
X-8940800Y+9550400D01*
X-2500000Y+9762000D02*
X-2641600Y+9620400D01*
X-2641600Y+8153600D01*
X-2500000Y+8012000D01*
X-12000000Y+9762000D02*
X-12000000Y+9448800D01*
X-12192000Y+9256800D01*
X-12192000Y+8704000D01*
X-12000000Y+8512000D01*
X-12000000Y+8026400D01*
X-11887200Y+7913600D01*
X-11887200Y+7374800D01*
X-12000000Y+7262000D01*
X-12000000Y+7112000D01*
X-11887200Y+6999200D01*
X-11887200Y+6124800D01*
X-12000000Y+6012000D01*
X-5500000Y+9762000D02*
X-5500000Y+9550400D01*
X-5689600Y+9360800D01*
X-5689600Y+8701600D01*
X-5500000Y+8512000D01*
X-12500000Y+10250000D02*
X-12500000Y+11012000D01*
X-6000000Y+10250000D02*
X-6000000Y+11012000D01*
X-3000000Y+10250000D02*
X-3000000Y+11012000D01*
X-9250000Y+6250000D02*
X-9250000Y+7012000D01*
X-9250000Y+10250000D02*
X-9250000Y+11012000D01*
D11*
X-1206500Y+8191500D03*
X-2730500Y+6794500D03*
X-11239500Y+6794500D03*
X-2921000Y+9461500D03*
X-2921000Y+6921500D03*
X-1524000Y+6604000D03*
X-10795000Y+6731000D03*
X-2603500Y+5778500D03*
X-11049000Y+5778500D03*
X-2540000Y+9969500D03*
X-1714500Y+9969500D03*
X-10223500Y+10858500D03*
X-6731000Y+8509000D03*
X-3048000Y+8318500D03*
X-3937000Y+8318500D03*
X-6477000Y+8509000D03*
X-3937000Y+10668000D03*
X-3238500Y+8636000D03*
X-7620000Y+8763000D03*
X-3365500Y+8763000D03*
X-7747000Y+10668000D03*
X-9969500Y+10668000D03*
X-9969500Y+8699500D03*
X-8255000Y+8699500D03*
X-4953000Y+8763000D03*
X-6350000Y+8763000D03*
X-2413000Y+10858500D03*
X-4381500Y+10668000D03*
X-6286500Y+9842500D03*
X-5905500Y+10033000D03*
X-5207000Y+10033000D03*
X-5270500Y+10477500D03*
X-4445000Y+10477500D03*
X-4572000Y+10477500D03*
X-9652000Y+10464800D03*
X-8128000Y+10464800D03*
X-8636000Y+10096500D03*
X-5397500Y+10795000D03*
X-6286500Y+7112000D03*
X-6286500Y+10160000D03*
X-6223000Y+7302500D03*
X-7874000Y+10033000D03*
X-7112000Y+10033000D03*
X-7112000Y+9461500D03*
X-7493000Y+9461500D03*
X-8382000Y+9461500D03*
X-7747000Y+9461500D03*
X-4762500Y+5905500D03*
X-5016500Y+5588000D03*
X-4127500Y+8382000D03*
X-3746500Y+10033000D03*
X-3873500Y+9144000D03*
X-6604000Y+6604000D03*
X-6731000Y+9144000D03*
X-6731000Y+10033000D03*
X-4762500Y+9461500D03*
X-5905500Y+9461500D03*
X-5778500Y+6985000D03*
X-10731500Y+6985000D03*
X-5334000Y+9461500D03*
X-5842000Y+8001000D03*
X-5842000Y+8953500D03*
X-9144000Y+8318500D03*
D12*
X-12000000Y+9000000D03*
D13*
X-11746000Y+9000000D03*
X-11492000Y+9000000D03*
X-11238000Y+9000000D03*
X-10984000Y+9000000D03*
X-10730000Y+9000000D03*
X-10476000Y+9000000D03*
X-10222000Y+9000000D03*
X-10222000Y+9762000D03*
X-10476000Y+9762000D03*
X-10730000Y+9762000D03*
X-10984000Y+9762000D03*
X-11238000Y+9762000D03*
X-11492000Y+9762000D03*
X-11746000Y+9762000D03*
X-12000000Y+9762000D03*
D12*
X-12000000Y+7750000D03*
D13*
X-11746000Y+7750000D03*
X-11492000Y+7750000D03*
X-11238000Y+7750000D03*
X-10984000Y+7750000D03*
X-10730000Y+7750000D03*
X-10476000Y+7750000D03*
X-10222000Y+7750000D03*
X-10222000Y+8512000D03*
X-10476000Y+8512000D03*
X-10730000Y+8512000D03*
X-10984000Y+8512000D03*
X-11238000Y+8512000D03*
X-11492000Y+8512000D03*
X-11746000Y+8512000D03*
X-12000000Y+8512000D03*
D12*
X-8750000Y+9000000D03*
D13*
X-8496000Y+9000000D03*
X-8242000Y+9000000D03*
X-7988000Y+9000000D03*
X-7734000Y+9000000D03*
X-7480000Y+9000000D03*
X-7226000Y+9000000D03*
X-6972000Y+9000000D03*
X-6972000Y+9762000D03*
X-7226000Y+9762000D03*
X-7480000Y+9762000D03*
X-7734000Y+9762000D03*
X-7988000Y+9762000D03*
X-8242000Y+9762000D03*
X-8496000Y+9762000D03*
X-8750000Y+9762000D03*
D12*
X-8750000Y+7750000D03*
D13*
X-8496000Y+7750000D03*
X-8242000Y+7750000D03*
X-7988000Y+7750000D03*
X-7734000Y+7750000D03*
X-7480000Y+7750000D03*
X-7226000Y+7750000D03*
X-6972000Y+7750000D03*
X-6972000Y+8512000D03*
X-7226000Y+8512000D03*
X-7480000Y+8512000D03*
X-7734000Y+8512000D03*
X-7988000Y+8512000D03*
X-8242000Y+8512000D03*
X-8496000Y+8512000D03*
X-8750000Y+8512000D03*
D12*
X-9250000Y+10250000D03*
D13*
X-8996000Y+10250000D03*
X-8742000Y+10250000D03*
X-8488000Y+10250000D03*
X-8234000Y+10250000D03*
X-7980000Y+10250000D03*
X-7726000Y+10250000D03*
X-7472000Y+10250000D03*
X-7218000Y+10250000D03*
X-6964000Y+10250000D03*
X-6964000Y+11012000D03*
X-7218000Y+11012000D03*
X-7472000Y+11012000D03*
X-7726000Y+11012000D03*
X-7980000Y+11012000D03*
X-8234000Y+11012000D03*
X-8488000Y+11012000D03*
X-8742000Y+11012000D03*
X-8996000Y+11012000D03*
X-9250000Y+11012000D03*
D12*
X-5500000Y+9000000D03*
D13*
X-5246000Y+9000000D03*
X-4992000Y+9000000D03*
X-4738000Y+9000000D03*
X-4484000Y+9000000D03*
X-4230000Y+9000000D03*
X-3976000Y+9000000D03*
X-3722000Y+9000000D03*
X-3722000Y+9762000D03*
X-3976000Y+9762000D03*
X-4230000Y+9762000D03*
X-4484000Y+9762000D03*
X-4738000Y+9762000D03*
X-4992000Y+9762000D03*
X-5246000Y+9762000D03*
X-5500000Y+9762000D03*
D12*
X-5500000Y+7750000D03*
D13*
X-5246000Y+7750000D03*
X-4992000Y+7750000D03*
X-4738000Y+7750000D03*
X-4484000Y+7750000D03*
X-4230000Y+7750000D03*
X-3976000Y+7750000D03*
X-3722000Y+7750000D03*
X-3722000Y+8512000D03*
X-3976000Y+8512000D03*
X-4230000Y+8512000D03*
X-4484000Y+8512000D03*
X-4738000Y+8512000D03*
X-4992000Y+8512000D03*
X-5246000Y+8512000D03*
X-5500000Y+8512000D03*
D12*
X-6000000Y+10250000D03*
D13*
X-5746000Y+10250000D03*
X-5492000Y+10250000D03*
X-5238000Y+10250000D03*
X-4984000Y+10250000D03*
X-4730000Y+10250000D03*
X-4476000Y+10250000D03*
X-4222000Y+10250000D03*
X-3968000Y+10250000D03*
X-3714000Y+10250000D03*
X-3714000Y+11012000D03*
X-3968000Y+11012000D03*
X-4222000Y+11012000D03*
X-4476000Y+11012000D03*
X-4730000Y+11012000D03*
X-4984000Y+11012000D03*
X-5238000Y+11012000D03*
X-5492000Y+11012000D03*
X-5746000Y+11012000D03*
X-6000000Y+11012000D03*
D12*
X-12000000Y+6500000D03*
D13*
X-11746000Y+6500000D03*
X-11492000Y+6500000D03*
X-11238000Y+6500000D03*
X-10984000Y+6500000D03*
X-10730000Y+6500000D03*
X-10476000Y+6500000D03*
X-10476000Y+7262000D03*
X-10730000Y+7262000D03*
X-10984000Y+7262000D03*
X-11238000Y+7262000D03*
X-11492000Y+7262000D03*
X-11746000Y+7262000D03*
X-12000000Y+7262000D03*
D12*
X-12000000Y+5250000D03*
D13*
X-11746000Y+5250000D03*
X-11492000Y+5250000D03*
X-11238000Y+5250000D03*
X-10984000Y+5250000D03*
X-10730000Y+5250000D03*
X-10476000Y+5250000D03*
X-10476000Y+6012000D03*
X-10730000Y+6012000D03*
X-10984000Y+6012000D03*
X-11238000Y+6012000D03*
X-11492000Y+6012000D03*
X-11746000Y+6012000D03*
X-12000000Y+6012000D03*
D12*
X-9250000Y+6250000D03*
D13*
X-8996000Y+6250000D03*
X-8742000Y+6250000D03*
X-8488000Y+6250000D03*
X-8234000Y+6250000D03*
X-7980000Y+6250000D03*
X-7726000Y+6250000D03*
X-7472000Y+6250000D03*
X-7218000Y+6250000D03*
X-6964000Y+6250000D03*
X-6964000Y+7012000D03*
X-7218000Y+7012000D03*
X-7472000Y+7012000D03*
X-7726000Y+7012000D03*
X-7980000Y+7012000D03*
X-8234000Y+7012000D03*
X-8488000Y+7012000D03*
X-8742000Y+7012000D03*
X-8996000Y+7012000D03*
X-9250000Y+7012000D03*
D12*
X-2500000Y+9000000D03*
D13*
X-2246000Y+9000000D03*
X-1992000Y+9000000D03*
X-1738000Y+9000000D03*
X-1484000Y+9000000D03*
X-1230000Y+9000000D03*
X-976000Y+9000000D03*
X-722000Y+9000000D03*
X-722000Y+9762000D03*
X-976000Y+9762000D03*
X-1230000Y+9762000D03*
X-1484000Y+9762000D03*
X-1738000Y+9762000D03*
X-1992000Y+9762000D03*
X-2246000Y+9762000D03*
X-2500000Y+9762000D03*
D12*
X-2500000Y+7250000D03*
D13*
X-2246000Y+7250000D03*
X-1992000Y+7250000D03*
X-1738000Y+7250000D03*
X-1484000Y+7250000D03*
X-1230000Y+7250000D03*
X-976000Y+7250000D03*
X-722000Y+7250000D03*
X-722000Y+8012000D03*
X-976000Y+8012000D03*
X-1230000Y+8012000D03*
X-1484000Y+8012000D03*
X-1738000Y+8012000D03*
X-1992000Y+8012000D03*
X-2246000Y+8012000D03*
X-2500000Y+8012000D03*
D12*
X-3000000Y+10250000D03*
D13*
X-2746000Y+10250000D03*
X-2492000Y+10250000D03*
X-2238000Y+10250000D03*
X-1984000Y+10250000D03*
X-1730000Y+10250000D03*
X-1476000Y+10250000D03*
X-1222000Y+10250000D03*
X-968000Y+10250000D03*
X-714000Y+10250000D03*
X-714000Y+11012000D03*
X-968000Y+11012000D03*
X-1222000Y+11012000D03*
X-1476000Y+11012000D03*
X-1730000Y+11012000D03*
X-1984000Y+11012000D03*
X-2238000Y+11012000D03*
X-2492000Y+11012000D03*
X-2746000Y+11012000D03*
X-3000000Y+11012000D03*
D12*
X-12500000Y+10250000D03*
D13*
X-12246000Y+10250000D03*
X-11992000Y+10250000D03*
X-11738000Y+10250000D03*
X-11484000Y+10250000D03*
X-11230000Y+10250000D03*
X-10976000Y+10250000D03*
X-10722000Y+10250000D03*
X-10468000Y+10250000D03*
X-10214000Y+10250000D03*
X-10214000Y+11012000D03*
X-10468000Y+11012000D03*
X-10722000Y+11012000D03*
X-10976000Y+11012000D03*
X-11230000Y+11012000D03*
X-11484000Y+11012000D03*
X-11738000Y+11012000D03*
X-11992000Y+11012000D03*
X-12246000Y+11012000D03*
X-12500000Y+11012000D03*
D14*
X-13000000Y-3500000D02*
X+2000000Y-3500000D01*
X+2000000Y+11500000D01*
X-13000000Y+11500000D01*
X-13000000Y-3500000D01*
M02*
