G04 PROTEUS GERBER X2 FILE*
%TF.GenerationSoftware,Labcenter,Proteus,8.6-SP2-Build23525*%
%TF.CreationDate,2019-09-23T20:59:54+00:00*%
%TF.FileFunction,AssemblyDrawing,Top*%
%TF.FilePolarity,Positive*%
%TF.Part,Single*%
%FSLAX45Y45*%
%MOMM*%
G01*
%TA.AperFunction,Material*%
%ADD15C,0.203200*%
%ADD19C,0.293180*%
%ADD70C,0.228030*%
%ADD71C,0.284480*%
%ADD20C,0.256900*%
%ADD21C,0.232750*%
%ADD22C,0.157870*%
%ADD23C,0.365760*%
%TA.AperFunction,Profile*%
%ADD14C,0.203200*%
%TD.AperFunction*%
D15*
X-12137160Y+8936500D02*
X-10084840Y+8936500D01*
X-10084840Y+9825500D01*
X-12137160Y+9825500D01*
X-12137160Y+8936500D01*
D19*
X-11814650Y+9293043D02*
X-11814650Y+9468956D01*
X-11668057Y+9468956D01*
X-11638738Y+9439637D01*
X-11638738Y+9410318D01*
X-11668057Y+9381000D01*
X-11814650Y+9381000D01*
X-11668057Y+9381000D02*
X-11638738Y+9351681D01*
X-11638738Y+9293043D01*
X-11580100Y+9293043D02*
X-11580100Y+9410318D01*
X-11521463Y+9468956D01*
X-11462825Y+9468956D01*
X-11404188Y+9410318D01*
X-11404188Y+9293043D01*
X-11580100Y+9351681D02*
X-11404188Y+9351681D01*
X-11345550Y+9293043D02*
X-11345550Y+9468956D01*
X-11257594Y+9381000D01*
X-11169638Y+9468956D01*
X-11169638Y+9293043D01*
X-11111000Y+9263724D02*
X-10935088Y+9263724D01*
X-10876450Y+9322362D02*
X-10876450Y+9439637D01*
X-10847132Y+9468956D01*
X-10729857Y+9468956D01*
X-10700538Y+9439637D01*
X-10700538Y+9322362D01*
X-10729857Y+9293043D01*
X-10847132Y+9293043D01*
X-10876450Y+9322362D01*
X-10876450Y+9293043D02*
X-10700538Y+9468956D01*
X-10583263Y+9410318D02*
X-10524625Y+9468956D01*
X-10524625Y+9293043D01*
D15*
X-12137160Y+7686500D02*
X-10084840Y+7686500D01*
X-10084840Y+8575500D01*
X-12137160Y+8575500D01*
X-12137160Y+7686500D01*
D19*
X-11814650Y+8043043D02*
X-11814650Y+8218956D01*
X-11668057Y+8218956D01*
X-11638738Y+8189637D01*
X-11638738Y+8160318D01*
X-11668057Y+8131000D01*
X-11814650Y+8131000D01*
X-11668057Y+8131000D02*
X-11638738Y+8101681D01*
X-11638738Y+8043043D01*
X-11580100Y+8043043D02*
X-11580100Y+8160318D01*
X-11521463Y+8218956D01*
X-11462825Y+8218956D01*
X-11404188Y+8160318D01*
X-11404188Y+8043043D01*
X-11580100Y+8101681D02*
X-11404188Y+8101681D01*
X-11345550Y+8043043D02*
X-11345550Y+8218956D01*
X-11257594Y+8131000D01*
X-11169638Y+8218956D01*
X-11169638Y+8043043D01*
X-11111000Y+8013724D02*
X-10935088Y+8013724D01*
X-10876450Y+8072362D02*
X-10876450Y+8189637D01*
X-10847132Y+8218956D01*
X-10729857Y+8218956D01*
X-10700538Y+8189637D01*
X-10700538Y+8072362D01*
X-10729857Y+8043043D01*
X-10847132Y+8043043D01*
X-10876450Y+8072362D01*
X-10876450Y+8043043D02*
X-10700538Y+8218956D01*
X-10612582Y+8189637D02*
X-10583263Y+8218956D01*
X-10495307Y+8218956D01*
X-10465988Y+8189637D01*
X-10465988Y+8160318D01*
X-10495307Y+8131000D01*
X-10583263Y+8131000D01*
X-10612582Y+8101681D01*
X-10612582Y+8043043D01*
X-10465988Y+8043043D01*
D15*
X-8887160Y+8936500D02*
X-6834840Y+8936500D01*
X-6834840Y+9825500D01*
X-8887160Y+9825500D01*
X-8887160Y+8936500D01*
D70*
X-8590712Y+9312590D02*
X-8590712Y+9449411D01*
X-8476695Y+9449411D01*
X-8453891Y+9426607D01*
X-8453891Y+9403804D01*
X-8476695Y+9381000D01*
X-8590712Y+9381000D01*
X-8476695Y+9381000D02*
X-8453891Y+9358197D01*
X-8453891Y+9312590D01*
X-8271463Y+9312590D02*
X-8408284Y+9312590D01*
X-8408284Y+9449411D01*
X-8271463Y+9449411D01*
X-8408284Y+9381000D02*
X-8317070Y+9381000D01*
X-8134642Y+9358197D02*
X-8089035Y+9358197D01*
X-8089035Y+9312590D01*
X-8180249Y+9312590D01*
X-8225856Y+9358197D01*
X-8225856Y+9403804D01*
X-8180249Y+9449411D01*
X-8111839Y+9449411D01*
X-8089035Y+9426607D01*
X-8043428Y+9289786D02*
X-7906607Y+9289786D01*
X-7861000Y+9312590D02*
X-7861000Y+9403804D01*
X-7815393Y+9449411D01*
X-7769786Y+9449411D01*
X-7724179Y+9403804D01*
X-7724179Y+9312590D01*
X-7861000Y+9358197D02*
X-7724179Y+9358197D01*
X-7678572Y+9289786D02*
X-7541751Y+9289786D01*
X-7496144Y+9335393D02*
X-7496144Y+9426607D01*
X-7473341Y+9449411D01*
X-7382127Y+9449411D01*
X-7359323Y+9426607D01*
X-7359323Y+9335393D01*
X-7382127Y+9312590D01*
X-7473341Y+9312590D01*
X-7496144Y+9335393D01*
X-7496144Y+9312590D02*
X-7359323Y+9449411D01*
X-7268109Y+9403804D02*
X-7222502Y+9449411D01*
X-7222502Y+9312590D01*
D15*
X-8887160Y+7686500D02*
X-6834840Y+7686500D01*
X-6834840Y+8575500D01*
X-8887160Y+8575500D01*
X-8887160Y+7686500D01*
D70*
X-8590712Y+8062590D02*
X-8590712Y+8199411D01*
X-8476695Y+8199411D01*
X-8453891Y+8176607D01*
X-8453891Y+8153804D01*
X-8476695Y+8131000D01*
X-8590712Y+8131000D01*
X-8476695Y+8131000D02*
X-8453891Y+8108197D01*
X-8453891Y+8062590D01*
X-8271463Y+8062590D02*
X-8408284Y+8062590D01*
X-8408284Y+8199411D01*
X-8271463Y+8199411D01*
X-8408284Y+8131000D02*
X-8317070Y+8131000D01*
X-8134642Y+8108197D02*
X-8089035Y+8108197D01*
X-8089035Y+8062590D01*
X-8180249Y+8062590D01*
X-8225856Y+8108197D01*
X-8225856Y+8153804D01*
X-8180249Y+8199411D01*
X-8111839Y+8199411D01*
X-8089035Y+8176607D01*
X-8043428Y+8039786D02*
X-7906607Y+8039786D01*
X-7861000Y+8062590D02*
X-7861000Y+8153804D01*
X-7815393Y+8199411D01*
X-7769786Y+8199411D01*
X-7724179Y+8153804D01*
X-7724179Y+8062590D01*
X-7861000Y+8108197D02*
X-7724179Y+8108197D01*
X-7678572Y+8039786D02*
X-7541751Y+8039786D01*
X-7496144Y+8085393D02*
X-7496144Y+8176607D01*
X-7473341Y+8199411D01*
X-7382127Y+8199411D01*
X-7359323Y+8176607D01*
X-7359323Y+8085393D01*
X-7382127Y+8062590D01*
X-7473341Y+8062590D01*
X-7496144Y+8085393D01*
X-7496144Y+8062590D02*
X-7359323Y+8199411D01*
X-7290913Y+8176607D02*
X-7268109Y+8199411D01*
X-7199699Y+8199411D01*
X-7176895Y+8176607D01*
X-7176895Y+8153804D01*
X-7199699Y+8131000D01*
X-7268109Y+8131000D01*
X-7290913Y+8108197D01*
X-7290913Y+8062590D01*
X-7176895Y+8062590D01*
D15*
X-9387160Y+10186500D02*
X-6826840Y+10186500D01*
X-6826840Y+11075500D01*
X-9387160Y+11075500D01*
X-9387160Y+10186500D01*
D71*
X-9017336Y+10545656D02*
X-9017336Y+10716344D01*
X-8875096Y+10716344D01*
X-8846648Y+10687896D01*
X-8846648Y+10659448D01*
X-8875096Y+10631000D01*
X-9017336Y+10631000D01*
X-8875096Y+10631000D02*
X-8846648Y+10602552D01*
X-8846648Y+10545656D01*
X-8619064Y+10545656D02*
X-8789752Y+10545656D01*
X-8789752Y+10716344D01*
X-8619064Y+10716344D01*
X-8789752Y+10631000D02*
X-8675960Y+10631000D01*
X-8448376Y+10602552D02*
X-8391480Y+10602552D01*
X-8391480Y+10545656D01*
X-8505272Y+10545656D01*
X-8562168Y+10602552D01*
X-8562168Y+10659448D01*
X-8505272Y+10716344D01*
X-8419928Y+10716344D01*
X-8391480Y+10687896D01*
X-8334584Y+10517208D02*
X-8163896Y+10517208D01*
X-8107000Y+10545656D02*
X-8107000Y+10659448D01*
X-8050104Y+10716344D01*
X-7993208Y+10716344D01*
X-7936312Y+10659448D01*
X-7936312Y+10545656D01*
X-8107000Y+10602552D02*
X-7936312Y+10602552D01*
X-7879416Y+10517208D02*
X-7708728Y+10517208D01*
X-7651832Y+10574104D02*
X-7651832Y+10687896D01*
X-7623384Y+10716344D01*
X-7509592Y+10716344D01*
X-7481144Y+10687896D01*
X-7481144Y+10574104D01*
X-7509592Y+10545656D01*
X-7623384Y+10545656D01*
X-7651832Y+10574104D01*
X-7651832Y+10545656D02*
X-7481144Y+10716344D01*
X-7395800Y+10687896D02*
X-7367352Y+10716344D01*
X-7282008Y+10716344D01*
X-7253560Y+10687896D01*
X-7253560Y+10659448D01*
X-7282008Y+10631000D01*
X-7253560Y+10602552D01*
X-7253560Y+10574104D01*
X-7282008Y+10545656D01*
X-7367352Y+10545656D01*
X-7395800Y+10574104D01*
X-7338904Y+10631000D02*
X-7282008Y+10631000D01*
D15*
X-5637160Y+8936500D02*
X-3584840Y+8936500D01*
X-3584840Y+9825500D01*
X-5637160Y+9825500D01*
X-5637160Y+8936500D01*
D70*
X-5340712Y+9312590D02*
X-5340712Y+9449411D01*
X-5226695Y+9449411D01*
X-5203891Y+9426607D01*
X-5203891Y+9403804D01*
X-5226695Y+9381000D01*
X-5340712Y+9381000D01*
X-5226695Y+9381000D02*
X-5203891Y+9358197D01*
X-5203891Y+9312590D01*
X-5021463Y+9312590D02*
X-5158284Y+9312590D01*
X-5158284Y+9449411D01*
X-5021463Y+9449411D01*
X-5158284Y+9381000D02*
X-5067070Y+9381000D01*
X-4884642Y+9358197D02*
X-4839035Y+9358197D01*
X-4839035Y+9312590D01*
X-4930249Y+9312590D01*
X-4975856Y+9358197D01*
X-4975856Y+9403804D01*
X-4930249Y+9449411D01*
X-4861839Y+9449411D01*
X-4839035Y+9426607D01*
X-4793428Y+9289786D02*
X-4656607Y+9289786D01*
X-4611000Y+9312590D02*
X-4611000Y+9449411D01*
X-4496983Y+9449411D01*
X-4474179Y+9426607D01*
X-4474179Y+9403804D01*
X-4496983Y+9381000D01*
X-4474179Y+9358197D01*
X-4474179Y+9335393D01*
X-4496983Y+9312590D01*
X-4611000Y+9312590D01*
X-4611000Y+9381000D02*
X-4496983Y+9381000D01*
X-4428572Y+9289786D02*
X-4291751Y+9289786D01*
X-4246144Y+9335393D02*
X-4246144Y+9426607D01*
X-4223341Y+9449411D01*
X-4132127Y+9449411D01*
X-4109323Y+9426607D01*
X-4109323Y+9335393D01*
X-4132127Y+9312590D01*
X-4223341Y+9312590D01*
X-4246144Y+9335393D01*
X-4246144Y+9312590D02*
X-4109323Y+9449411D01*
X-4018109Y+9403804D02*
X-3972502Y+9449411D01*
X-3972502Y+9312590D01*
D15*
X-5637160Y+7686500D02*
X-3584840Y+7686500D01*
X-3584840Y+8575500D01*
X-5637160Y+8575500D01*
X-5637160Y+7686500D01*
D70*
X-5340712Y+8062590D02*
X-5340712Y+8199411D01*
X-5226695Y+8199411D01*
X-5203891Y+8176607D01*
X-5203891Y+8153804D01*
X-5226695Y+8131000D01*
X-5340712Y+8131000D01*
X-5226695Y+8131000D02*
X-5203891Y+8108197D01*
X-5203891Y+8062590D01*
X-5021463Y+8062590D02*
X-5158284Y+8062590D01*
X-5158284Y+8199411D01*
X-5021463Y+8199411D01*
X-5158284Y+8131000D02*
X-5067070Y+8131000D01*
X-4884642Y+8108197D02*
X-4839035Y+8108197D01*
X-4839035Y+8062590D01*
X-4930249Y+8062590D01*
X-4975856Y+8108197D01*
X-4975856Y+8153804D01*
X-4930249Y+8199411D01*
X-4861839Y+8199411D01*
X-4839035Y+8176607D01*
X-4793428Y+8039786D02*
X-4656607Y+8039786D01*
X-4611000Y+8062590D02*
X-4611000Y+8199411D01*
X-4496983Y+8199411D01*
X-4474179Y+8176607D01*
X-4474179Y+8153804D01*
X-4496983Y+8131000D01*
X-4474179Y+8108197D01*
X-4474179Y+8085393D01*
X-4496983Y+8062590D01*
X-4611000Y+8062590D01*
X-4611000Y+8131000D02*
X-4496983Y+8131000D01*
X-4428572Y+8039786D02*
X-4291751Y+8039786D01*
X-4246144Y+8085393D02*
X-4246144Y+8176607D01*
X-4223341Y+8199411D01*
X-4132127Y+8199411D01*
X-4109323Y+8176607D01*
X-4109323Y+8085393D01*
X-4132127Y+8062590D01*
X-4223341Y+8062590D01*
X-4246144Y+8085393D01*
X-4246144Y+8062590D02*
X-4109323Y+8199411D01*
X-4040913Y+8176607D02*
X-4018109Y+8199411D01*
X-3949699Y+8199411D01*
X-3926895Y+8176607D01*
X-3926895Y+8153804D01*
X-3949699Y+8131000D01*
X-4018109Y+8131000D01*
X-4040913Y+8108197D01*
X-4040913Y+8062590D01*
X-3926895Y+8062590D01*
D15*
X-6137160Y+10186500D02*
X-3576840Y+10186500D01*
X-3576840Y+11075500D01*
X-6137160Y+11075500D01*
X-6137160Y+10186500D01*
D71*
X-5767336Y+10545656D02*
X-5767336Y+10716344D01*
X-5625096Y+10716344D01*
X-5596648Y+10687896D01*
X-5596648Y+10659448D01*
X-5625096Y+10631000D01*
X-5767336Y+10631000D01*
X-5625096Y+10631000D02*
X-5596648Y+10602552D01*
X-5596648Y+10545656D01*
X-5369064Y+10545656D02*
X-5539752Y+10545656D01*
X-5539752Y+10716344D01*
X-5369064Y+10716344D01*
X-5539752Y+10631000D02*
X-5425960Y+10631000D01*
X-5198376Y+10602552D02*
X-5141480Y+10602552D01*
X-5141480Y+10545656D01*
X-5255272Y+10545656D01*
X-5312168Y+10602552D01*
X-5312168Y+10659448D01*
X-5255272Y+10716344D01*
X-5169928Y+10716344D01*
X-5141480Y+10687896D01*
X-5084584Y+10517208D02*
X-4913896Y+10517208D01*
X-4857000Y+10545656D02*
X-4857000Y+10716344D01*
X-4714760Y+10716344D01*
X-4686312Y+10687896D01*
X-4686312Y+10659448D01*
X-4714760Y+10631000D01*
X-4686312Y+10602552D01*
X-4686312Y+10574104D01*
X-4714760Y+10545656D01*
X-4857000Y+10545656D01*
X-4857000Y+10631000D02*
X-4714760Y+10631000D01*
X-4629416Y+10517208D02*
X-4458728Y+10517208D01*
X-4401832Y+10574104D02*
X-4401832Y+10687896D01*
X-4373384Y+10716344D01*
X-4259592Y+10716344D01*
X-4231144Y+10687896D01*
X-4231144Y+10574104D01*
X-4259592Y+10545656D01*
X-4373384Y+10545656D01*
X-4401832Y+10574104D01*
X-4401832Y+10545656D02*
X-4231144Y+10716344D01*
X-4145800Y+10687896D02*
X-4117352Y+10716344D01*
X-4032008Y+10716344D01*
X-4003560Y+10687896D01*
X-4003560Y+10659448D01*
X-4032008Y+10631000D01*
X-4003560Y+10602552D01*
X-4003560Y+10574104D01*
X-4032008Y+10545656D01*
X-4117352Y+10545656D01*
X-4145800Y+10574104D01*
X-4088904Y+10631000D02*
X-4032008Y+10631000D01*
D15*
X-12137160Y+6436500D02*
X-10338840Y+6436500D01*
X-10338840Y+7325500D01*
X-12137160Y+7325500D01*
X-12137160Y+6436500D01*
D20*
X-11854563Y+6958070D02*
X-11700423Y+6803929D01*
X-11854563Y+6803929D02*
X-11700423Y+6958070D01*
X-11649042Y+6906690D02*
X-11597662Y+6958070D01*
X-11546282Y+6958070D01*
X-11494902Y+6906690D01*
X-11494902Y+6855309D01*
X-11546282Y+6803929D01*
X-11597662Y+6803929D01*
X-11649042Y+6855309D01*
X-11649042Y+6906690D01*
X-11443521Y+6803929D02*
X-11443521Y+6958070D01*
X-11315071Y+6958070D01*
X-11289381Y+6932380D01*
X-11289381Y+6906690D01*
X-11315071Y+6881000D01*
X-11443521Y+6881000D01*
X-11315071Y+6881000D02*
X-11289381Y+6855309D01*
X-11289381Y+6803929D01*
X-11238000Y+6778239D02*
X-11083860Y+6778239D01*
X-11032479Y+6829619D02*
X-11032479Y+6932380D01*
X-11006789Y+6958070D01*
X-10904029Y+6958070D01*
X-10878339Y+6932380D01*
X-10878339Y+6829619D01*
X-10904029Y+6803929D01*
X-11006789Y+6803929D01*
X-11032479Y+6829619D01*
X-11032479Y+6803929D02*
X-10878339Y+6958070D01*
X-10775578Y+6906690D02*
X-10724198Y+6958070D01*
X-10724198Y+6803929D01*
D15*
X-12137160Y+5186500D02*
X-10338840Y+5186500D01*
X-10338840Y+6075500D01*
X-12137160Y+6075500D01*
X-12137160Y+5186500D01*
D20*
X-11854563Y+5708070D02*
X-11700423Y+5553929D01*
X-11854563Y+5553929D02*
X-11700423Y+5708070D01*
X-11649042Y+5656690D02*
X-11597662Y+5708070D01*
X-11546282Y+5708070D01*
X-11494902Y+5656690D01*
X-11494902Y+5605309D01*
X-11546282Y+5553929D01*
X-11597662Y+5553929D01*
X-11649042Y+5605309D01*
X-11649042Y+5656690D01*
X-11443521Y+5553929D02*
X-11443521Y+5708070D01*
X-11315071Y+5708070D01*
X-11289381Y+5682380D01*
X-11289381Y+5656690D01*
X-11315071Y+5631000D01*
X-11443521Y+5631000D01*
X-11315071Y+5631000D02*
X-11289381Y+5605309D01*
X-11289381Y+5553929D01*
X-11238000Y+5528239D02*
X-11083860Y+5528239D01*
X-11032479Y+5579619D02*
X-11032479Y+5682380D01*
X-11006789Y+5708070D01*
X-10904029Y+5708070D01*
X-10878339Y+5682380D01*
X-10878339Y+5579619D01*
X-10904029Y+5553929D01*
X-11006789Y+5553929D01*
X-11032479Y+5579619D01*
X-11032479Y+5553929D02*
X-10878339Y+5708070D01*
X-10801268Y+5682380D02*
X-10775578Y+5708070D01*
X-10698508Y+5708070D01*
X-10672818Y+5682380D01*
X-10672818Y+5656690D01*
X-10698508Y+5631000D01*
X-10775578Y+5631000D01*
X-10801268Y+5605309D01*
X-10801268Y+5553929D01*
X-10672818Y+5553929D01*
D15*
X-9387160Y+6186500D02*
X-6826840Y+6186500D01*
X-6826840Y+7075500D01*
X-9387160Y+7075500D01*
X-9387160Y+6186500D01*
D21*
X-9038020Y+6561173D02*
X-9038020Y+6654275D01*
X-8991469Y+6700826D01*
X-8944918Y+6700826D01*
X-8898367Y+6654275D01*
X-8898367Y+6561173D01*
X-9038020Y+6607724D02*
X-8898367Y+6607724D01*
X-8851816Y+6561173D02*
X-8851816Y+6700826D01*
X-8758714Y+6700826D01*
X-8712163Y+6654275D01*
X-8712163Y+6607724D01*
X-8758714Y+6561173D01*
X-8851816Y+6561173D01*
X-8665612Y+6561173D02*
X-8665612Y+6700826D01*
X-8572510Y+6700826D01*
X-8525959Y+6654275D01*
X-8525959Y+6607724D01*
X-8572510Y+6561173D01*
X-8665612Y+6561173D01*
X-8479408Y+6537897D02*
X-8339755Y+6537897D01*
X-8293204Y+6561173D02*
X-8293204Y+6700826D01*
X-8176827Y+6700826D01*
X-8153551Y+6677551D01*
X-8153551Y+6654275D01*
X-8176827Y+6631000D01*
X-8153551Y+6607724D01*
X-8153551Y+6584448D01*
X-8176827Y+6561173D01*
X-8293204Y+6561173D01*
X-8293204Y+6631000D02*
X-8176827Y+6631000D01*
X-8107000Y+6700826D02*
X-8107000Y+6584448D01*
X-8083725Y+6561173D01*
X-7990623Y+6561173D01*
X-7967347Y+6584448D01*
X-7967347Y+6700826D01*
X-7920796Y+6584448D02*
X-7897521Y+6561173D01*
X-7804419Y+6561173D01*
X-7781143Y+6584448D01*
X-7781143Y+6607724D01*
X-7804419Y+6631000D01*
X-7897521Y+6631000D01*
X-7920796Y+6654275D01*
X-7920796Y+6677551D01*
X-7897521Y+6700826D01*
X-7804419Y+6700826D01*
X-7781143Y+6677551D01*
X-7734592Y+6537897D02*
X-7594939Y+6537897D01*
X-7548388Y+6584448D02*
X-7548388Y+6677551D01*
X-7525113Y+6700826D01*
X-7432011Y+6700826D01*
X-7408735Y+6677551D01*
X-7408735Y+6584448D01*
X-7432011Y+6561173D01*
X-7525113Y+6561173D01*
X-7548388Y+6584448D01*
X-7548388Y+6561173D02*
X-7408735Y+6700826D01*
X-7315633Y+6654275D02*
X-7269082Y+6700826D01*
X-7269082Y+6561173D01*
D15*
X-2637160Y+8936500D02*
X-584840Y+8936500D01*
X-584840Y+9825500D01*
X-2637160Y+9825500D01*
X-2637160Y+8936500D01*
D22*
X-2368776Y+9333639D02*
X-2368776Y+9396787D01*
X-2337202Y+9428361D01*
X-2305628Y+9428361D01*
X-2274054Y+9396787D01*
X-2274054Y+9333639D01*
X-2368776Y+9365213D02*
X-2274054Y+9365213D01*
X-2242480Y+9428361D02*
X-2242480Y+9333639D01*
X-2147758Y+9333639D01*
X-2116184Y+9428361D02*
X-2116184Y+9349426D01*
X-2100397Y+9333639D01*
X-2037249Y+9333639D01*
X-2021462Y+9349426D01*
X-2021462Y+9428361D01*
X-1989888Y+9317852D02*
X-1895166Y+9317852D01*
X-1863592Y+9333639D02*
X-1863592Y+9396787D01*
X-1832018Y+9428361D01*
X-1800444Y+9428361D01*
X-1768870Y+9396787D01*
X-1768870Y+9333639D01*
X-1863592Y+9365213D02*
X-1768870Y+9365213D01*
X-1737296Y+9333639D02*
X-1737296Y+9428361D01*
X-1674148Y+9428361D01*
X-1642574Y+9396787D01*
X-1642574Y+9365213D01*
X-1674148Y+9333639D01*
X-1737296Y+9333639D01*
X-1611000Y+9333639D02*
X-1611000Y+9428361D01*
X-1547852Y+9428361D01*
X-1516278Y+9396787D01*
X-1516278Y+9365213D01*
X-1547852Y+9333639D01*
X-1611000Y+9333639D01*
X-1389982Y+9333639D02*
X-1484704Y+9333639D01*
X-1484704Y+9428361D01*
X-1389982Y+9428361D01*
X-1484704Y+9381000D02*
X-1421556Y+9381000D01*
X-1358408Y+9333639D02*
X-1358408Y+9428361D01*
X-1279473Y+9428361D01*
X-1263686Y+9412574D01*
X-1263686Y+9396787D01*
X-1279473Y+9381000D01*
X-1358408Y+9381000D01*
X-1279473Y+9381000D02*
X-1263686Y+9365213D01*
X-1263686Y+9333639D01*
X-1232112Y+9317852D02*
X-1137390Y+9317852D01*
X-1105816Y+9349426D02*
X-1105816Y+9412574D01*
X-1090029Y+9428361D01*
X-1026881Y+9428361D01*
X-1011094Y+9412574D01*
X-1011094Y+9349426D01*
X-1026881Y+9333639D01*
X-1090029Y+9333639D01*
X-1105816Y+9349426D01*
X-1105816Y+9333639D02*
X-1011094Y+9428361D01*
X-947946Y+9396787D02*
X-916372Y+9428361D01*
X-916372Y+9333639D01*
D15*
X-2637160Y+7186500D02*
X-584840Y+7186500D01*
X-584840Y+8075500D01*
X-2637160Y+8075500D01*
X-2637160Y+7186500D01*
D22*
X-2368776Y+7583639D02*
X-2368776Y+7646787D01*
X-2337202Y+7678361D01*
X-2305628Y+7678361D01*
X-2274054Y+7646787D01*
X-2274054Y+7583639D01*
X-2368776Y+7615213D02*
X-2274054Y+7615213D01*
X-2242480Y+7678361D02*
X-2242480Y+7583639D01*
X-2147758Y+7583639D01*
X-2116184Y+7678361D02*
X-2116184Y+7599426D01*
X-2100397Y+7583639D01*
X-2037249Y+7583639D01*
X-2021462Y+7599426D01*
X-2021462Y+7678361D01*
X-1989888Y+7567852D02*
X-1895166Y+7567852D01*
X-1863592Y+7583639D02*
X-1863592Y+7646787D01*
X-1832018Y+7678361D01*
X-1800444Y+7678361D01*
X-1768870Y+7646787D01*
X-1768870Y+7583639D01*
X-1863592Y+7615213D02*
X-1768870Y+7615213D01*
X-1737296Y+7583639D02*
X-1737296Y+7678361D01*
X-1674148Y+7678361D01*
X-1642574Y+7646787D01*
X-1642574Y+7615213D01*
X-1674148Y+7583639D01*
X-1737296Y+7583639D01*
X-1611000Y+7583639D02*
X-1611000Y+7678361D01*
X-1547852Y+7678361D01*
X-1516278Y+7646787D01*
X-1516278Y+7615213D01*
X-1547852Y+7583639D01*
X-1611000Y+7583639D01*
X-1389982Y+7583639D02*
X-1484704Y+7583639D01*
X-1484704Y+7678361D01*
X-1389982Y+7678361D01*
X-1484704Y+7631000D02*
X-1421556Y+7631000D01*
X-1358408Y+7583639D02*
X-1358408Y+7678361D01*
X-1279473Y+7678361D01*
X-1263686Y+7662574D01*
X-1263686Y+7646787D01*
X-1279473Y+7631000D01*
X-1358408Y+7631000D01*
X-1279473Y+7631000D02*
X-1263686Y+7615213D01*
X-1263686Y+7583639D01*
X-1232112Y+7567852D02*
X-1137390Y+7567852D01*
X-1105816Y+7599426D02*
X-1105816Y+7662574D01*
X-1090029Y+7678361D01*
X-1026881Y+7678361D01*
X-1011094Y+7662574D01*
X-1011094Y+7599426D01*
X-1026881Y+7583639D01*
X-1090029Y+7583639D01*
X-1105816Y+7599426D01*
X-1105816Y+7583639D02*
X-1011094Y+7678361D01*
X-963733Y+7662574D02*
X-947946Y+7678361D01*
X-900585Y+7678361D01*
X-884798Y+7662574D01*
X-884798Y+7646787D01*
X-900585Y+7631000D01*
X-947946Y+7631000D01*
X-963733Y+7615213D01*
X-963733Y+7583639D01*
X-884798Y+7583639D01*
D15*
X-3137160Y+10186500D02*
X-576840Y+10186500D01*
X-576840Y+11075500D01*
X-3137160Y+11075500D01*
X-3137160Y+10186500D01*
D23*
X-2734824Y+10521272D02*
X-2734824Y+10667576D01*
X-2661672Y+10740728D01*
X-2588520Y+10740728D01*
X-2515368Y+10667576D01*
X-2515368Y+10521272D01*
X-2734824Y+10594424D02*
X-2515368Y+10594424D01*
X-2442216Y+10740728D02*
X-2442216Y+10521272D01*
X-2222760Y+10521272D01*
X-2149608Y+10740728D02*
X-2149608Y+10557848D01*
X-2113032Y+10521272D01*
X-1966728Y+10521272D01*
X-1930152Y+10557848D01*
X-1930152Y+10740728D01*
X-1857000Y+10484696D02*
X-1637544Y+10484696D01*
X-1344936Y+10521272D02*
X-1564392Y+10521272D01*
X-1564392Y+10740728D01*
X-1344936Y+10740728D01*
X-1564392Y+10631000D02*
X-1418088Y+10631000D01*
X-1271784Y+10521272D02*
X-1271784Y+10740728D01*
X-1052328Y+10521272D01*
X-1052328Y+10740728D01*
D15*
X-12637160Y+10186500D02*
X-10076840Y+10186500D01*
X-10076840Y+11075500D01*
X-12637160Y+11075500D01*
X-12637160Y+10186500D01*
D23*
X-12234824Y+10521272D02*
X-12234824Y+10740728D01*
X-12051944Y+10740728D01*
X-12015368Y+10704152D01*
X-12015368Y+10667576D01*
X-12051944Y+10631000D01*
X-12234824Y+10631000D01*
X-12051944Y+10631000D02*
X-12015368Y+10594424D01*
X-12015368Y+10521272D01*
X-11942216Y+10521272D02*
X-11942216Y+10667576D01*
X-11869064Y+10740728D01*
X-11795912Y+10740728D01*
X-11722760Y+10667576D01*
X-11722760Y+10521272D01*
X-11942216Y+10594424D02*
X-11722760Y+10594424D01*
X-11649608Y+10521272D02*
X-11649608Y+10740728D01*
X-11539880Y+10631000D01*
X-11430152Y+10740728D01*
X-11430152Y+10521272D01*
X-11357000Y+10484696D02*
X-11137544Y+10484696D01*
X-10844936Y+10521272D02*
X-11064392Y+10521272D01*
X-11064392Y+10740728D01*
X-10844936Y+10740728D01*
X-11064392Y+10631000D02*
X-10918088Y+10631000D01*
X-10771784Y+10521272D02*
X-10771784Y+10740728D01*
X-10552328Y+10521272D01*
X-10552328Y+10740728D01*
D14*
X-13000000Y-3500000D02*
X+2000000Y-3500000D01*
X+2000000Y+11500000D01*
X-13000000Y+11500000D01*
X-13000000Y-3500000D01*
M02*
